<svg version="1.0" xmlns="http://www.w3.org/2000/svg" width="1120.000000pt" height="1636.000000pt"
    viewBox="0 0 1120.000000 1636.000000" preserveAspectRatio="xMidYMid meet">

    <g transform="translate(0.000000,1636.000000) scale(0.100000,-0.100000)" fill="#000000" stroke="none">
        <path d="M3360 15323 l1 -1038 339 -254 340 -253 0 -2304 c0 -1267 -2 -2304
-3 -2304 -2 0 -586 447 -1298 993 l-1294 993 -5 754 -5 753 -640 499 c-352
274 -675 526 -717 559 l-78 60 0 -1793 0 -1793 2641 -2040 c1453 -1122 2682
-2071 2730 -2108 l89 -68 -2 4383 -3 4382 -1039 808 c-571 444 -1042 808
-1047 808 -5 0 -9 -434 -9 -1037z" />
        <path d="M5720 10290 c0 -2510 4 -4300 9 -4298 5 2 1233 948 2729 2103 l2721
2100 0 1003 c1 551 -2 1002 -7 1002 -4 0 -912 -681 -2017 -1514 l-2010 -1515
-5 2224 -5 2224 -685 472 c-377 259 -695 478 -707 486 l-23 15 0 -4302z" />
        <path d="M8398 7694 l-2798 -2165 -2792 2161 -2793 2161 -3 -3361 -2 -3362
664 -1486 c365 -818 681 -1523 703 -1567 l38 -80 5 3351 5 3352 2085 -1614
c1147 -888 2087 -1614 2090 -1614 3 0 943 726 2090 1614 l2085 1614 5 -3352
c4 -2606 8 -3346 17 -3330 7 11 325 721 707 1578 l696 1557 -2 3354 -3 3354
-2797 -2165z" />
    </g>
</svg>